{"title":"Kindergarten Cop 1990 DVD9rip English Klam","uid":5873913,"size":1682714102,"categoryP":"video","categoryS":"movies","magnet":"?xt=urn:btih:5936b3d1338548639b30bb203dfce76f882fa331&amp;dn=Kindergarten+Cop+1990+DVD9rip+English+Klam&amp;tr=udp%3A%2F%2Ftracker.openbittorrent.com%3A80&amp;tr=udp%3A%2F%2Fopen.demonii.com%3A1337&amp;tr=udp%3A%2F%2Ftracker.coppersurfer.tk%3A6969&amp;tr=udp%3A%2F%2Fexodus.desync.com%3A6969","seeders":1,"leechers":1,"uploader":"Klambake","files":-1,"time":1286536854,"description":"With: Arnold Schwarzenegger, Penelope Ann Miller en Pamela Reed\n\nJohn Kimble is a tough city cop who's been on the trail of drug dealer Cullen Crisp for years. He finally tracks Crisp down but it seems the only person that can testify against him is his ex-wife. The problem is she's disappeared and all Kimble knows is the name of the school in Oregon where her son attends. When things don't quite go to plan, Kimble finds he has to go undercover on his toughest assignment yet - Kindergarten teacher! \n\nGeneral:\n\nComplete name                    : Klambake\\Next\\GardenCop.avi\nFormat                           : AVI\nFormat/Info                      : Audio Video Interleave\nFile size                        : 1.57 GiB\nDuration                         : 1h 46mn\nOverall bit rate                 : 2 104 Kbps\n\nVideo:\n\nFormat                           : MPEG-4 Visual\nFormat profile                   : Simple@L3\nFormat settings, BVOP            : No\nFormat settings, QPel            : No\nFormat settings, GMC             : No warppoints\nFormat settings, Matrix          : Default (H.263)\nCodec ID                         : XVID\nCodec ID/Hint                    : XviD\nDuration                         : 1h 46mn\nBit rate                         : 1 901 Kbps\nWidth                            : 720 pixels\nHeight                           : 576 pixels\nDisplay aspect ratio             : 5:4\nFrame rate                       : 25.000 fps\nStandard                         : PAL\nColor space                      : YUV\nChroma subsampling               : 4:2:0\nBit depth                        : 8 bits\nScan type                        : Progressive\nBits/(Pixel*Frame)               : 0.183\nStream size                      : 1.42 GiB (90%)\nWriting library                  : XviD 1.1.2 (UTC 2006-11-01)\n\nAudio:\n\nFormat                           : AC-3\nFormat/Info                      : Audio Coding 3\nFormat profile                   : Dolby Digital\nMode extension                   : CM (complete main)\nCodec ID                         : 2000\nDuration                         : 1h 46mn\nBit rate mode                    : Constant\nBit rate                         : 192 Kbps\nChannel(s)                       : 2 channels\nChannel positions                : Front: L R\nSampling rate                    : 48.0 KHz\nBit depth                        : 16 bits\nStream size                      : 146 MiB (9%)\nAlignment                        : Aligned on interleaves\nInterleave, duration             : 32 ms (0.80 video frame)\nInterleave, preload duration     : 640 ms","torrent":{"xt":"urn:btih:5936b3d1338548639b30bb203dfce76f882fa331","amp;dn":"Kindergarten+Cop+1990+DVD9rip+English+Klam","amp;tr":["udp%3A%2F%2Ftracker.openbittorrent.com%3A80","udp%3A%2F%2Fopen.demonii.com%3A1337","udp%3A%2F%2Ftracker.coppersurfer.tk%3A6969","udp%3A%2F%2Fexodus.desync.com%3A6969"],"infoHash":"5936b3d1338548639b30bb203dfce76f882fa331","infoHashBuffer":{"type":"Buffer","data":[89,54,179,209,51,133,72,99,155,48,187,32,61,252,231,111,136,47,163,49]},"announce":[],"urlList":[]}}